<?xml version="1.0" standalone="no"?>
<!DOCTYPE svg PUBLIC "-//W3C//DTD SVG 20010904//EN"
 "http://www.w3.org/TR/2001/REC-SVG-20010904/DTD/svg10.dtd">
<svg version="1.0" xmlns="http://www.w3.org/2000/svg"
 width="1024.000000pt" height="1024.000000pt" viewBox="0 0 1024.000000 1024.000000"
 preserveAspectRatio="xMidYMid meet">

<g transform="translate(0.000000,1024.000000) scale(0.100000,-0.100000)"
fill="#000000" stroke="none">
<path d="M5060 9335 l0 -145 -159 0 -158 0 -2 -70 -2 -70 161 0 160 0 0 -270
0 -271 -47 28 c-27 15 -61 35 -78 45 -16 10 -33 18 -37 18 -5 0 -8 -33 -8 -73
l0 -74 85 -52 c98 -60 95 -50 70 -226 -42 -302 -142 -564 -303 -806 -69 -102
-126 -171 -345 -417 -214 -240 -322 -412 -368 -587 -30 -114 -37 -347 -14
-470 33 -181 111 -324 241 -443 l74 -69 0 -123 0 -124 -61 59 c-112 111 -286
350 -358 493 -45 89 -97 251 -116 356 -8 49 -13 91 -12 93 2 2 40 -17 83 -42
l79 -45 3 62 c2 33 1 66 -2 73 -2 7 -41 33 -85 59 l-81 48 0 293 0 292 53 7
c28 3 94 6 145 6 l92 0 0 60 0 60 -145 0 -145 0 0 130 0 130 -60 0 -60 0 0
-130 0 -130 -145 0 -145 0 0 -65 0 -65 145 0 145 0 0 -260 c0 -143 -2 -260 -4
-260 -2 0 -34 18 -71 41 -100 61 -95 62 -95 -19 l0 -71 80 -48 c80 -48 80 -48
80 -90 0 -79 -21 -198 -52 -288 -33 -98 -135 -315 -147 -315 -5 0 -26 37 -48
83 -48 99 -98 167 -229 312 -122 136 -208 241 -261 320 -53 79 -135 244 -161
325 -46 143 -84 340 -65 340 4 0 41 -18 81 -40 40 -22 77 -40 83 -40 5 0 9 30
9 68 l0 67 -86 50 c-47 27 -90 57 -95 67 -5 10 -8 137 -7 299 l3 283 148 -2
147 -1 0 70 0 69 -150 0 -150 0 0 140 0 140 -60 0 -60 0 0 -140 0 -140 -150 0
-150 0 0 -64 c0 -51 3 -65 17 -70 9 -4 76 -6 148 -5 l130 1 3 -256 c1 -141 0
-256 -3 -256 -3 0 -41 18 -85 40 l-80 40 0 -73 0 -74 86 -53 87 -52 -6 -92
c-9 -145 -66 -346 -143 -499 -53 -105 -135 -219 -282 -388 -206 -240 -287
-349 -337 -454 -62 -130 -78 -200 -79 -330 -1 -202 47 -321 185 -458 l89 -88
0 -527 0 -526 -40 -78 c-22 -42 -49 -112 -60 -154 -19 -75 -20 -116 -20 -1207
0 -1025 1 -1129 16 -1123 9 3 1476 6 3260 6 l3244 0 0 1115 c0 1249 2 1202
-71 1349 l-39 78 0 530 0 529 79 77 c130 127 185 268 185 472 -1 132 -18 216
-70 328 -52 115 -113 194 -387 510 -134 155 -256 368 -321 562 -33 99 -73 287
-63 297 3 2 41 -14 86 -36 44 -23 83 -41 86 -41 3 0 5 30 5 68 l0 67 -90 57
-90 58 0 295 0 294 153 3 152 3 3 63 3 62 -156 0 -155 0 0 140 0 140 -65 0
-65 0 0 -140 0 -140 -140 0 -141 0 3 -62 3 -63 138 -3 137 -3 0 -259 c0 -143
-3 -260 -6 -260 -4 0 -39 18 -79 40 -40 22 -75 40 -79 40 -4 0 -6 -33 -4 -72
l3 -73 82 -55 83 -55 0 -65 c-1 -130 -52 -313 -140 -495 -67 -138 -138 -237
-319 -443 -70 -81 -152 -178 -181 -217 -51 -67 -120 -195 -120 -222 0 -33 -21
-5 -63 85 -59 126 -102 255 -122 366 -24 140 -28 135 70 82 47 -25 87 -46 90
-46 3 0 5 27 5 60 l0 60 -90 52 -90 53 0 302 0 303 140 0 140 0 0 60 0 60
-140 0 -140 0 0 128 c0 71 -2 131 -4 133 -2 2 -29 2 -60 1 l-56 -4 0 -129 0
-129 -142 0 -143 0 3 -60 4 -60 139 0 139 0 0 -265 0 -266 -22 12 c-13 6 -49
27 -81 46 -32 19 -60 33 -63 30 -10 -10 -6 -127 4 -140 7 -7 44 -33 83 -58
l71 -44 -5 -80 c-13 -180 -96 -416 -205 -577 -94 -139 -317 -398 -342 -398 -4
0 -6 55 -4 122 l4 122 55 49 c136 120 225 288 255 478 17 104 8 344 -15 429
-59 215 -171 390 -427 664 -160 171 -207 228 -281 338 -122 183 -204 366 -256
571 -31 123 -67 334 -58 343 3 3 36 -11 74 -30 38 -20 72 -36 76 -36 4 0 7 31
7 69 l0 70 -80 48 -80 48 0 307 0 308 155 0 155 0 0 70 0 70 -155 0 -155 0 0
145 0 145 -65 0 -65 0 0 -145z m200 -1872 c97 -182 215 -340 410 -548 253
-271 340 -406 397 -617 23 -86 23 -287 -1 -383 -26 -106 -87 -225 -153 -295
l-57 -62 -741 4 c-641 3 -744 5 -760 18 -30 24 -91 112 -123 176 -88 174 -101
390 -35 597 52 167 123 276 327 502 388 430 485 582 593 925 2 8 24 -38 48
-104 25 -65 67 -161 95 -213z m2441 -1088 c71 -141 161 -271 275 -404 254
-294 314 -375 360 -489 75 -187 43 -433 -74 -554 l-36 -38 -461 0 -460 0 -52
78 c-28 42 -117 154 -197 247 -80 94 -146 177 -146 186 0 30 33 125 67 194 43
85 95 152 272 353 201 227 283 349 371 557 l13 30 8 -30 c5 -17 31 -75 60
-130z m-5044 70 c68 -163 188 -339 369 -541 192 -214 249 -303 285 -441 15
-62 17 -79 6 -92 -6 -9 -64 -76 -127 -150 -133 -154 -184 -220 -222 -285 l-28
-46 -459 0 -459 0 -30 25 c-46 39 -91 112 -114 188 -17 57 -20 86 -16 170 11
207 70 308 411 703 167 192 254 325 326 492 12 30 24 52 25 50 2 -1 17 -35 33
-73z m1073 -718 c0 -27 103 -222 159 -305 67 -98 193 -250 343 -414 l98 -108
0 -370 0 -370 -594 0 -594 0 -35 40 c-73 80 -107 178 -107 309 0 102 20 182
70 283 48 96 81 144 160 233 102 115 244 295 316 401 66 97 164 283 164 311 0
8 5 11 10 8 6 -3 10 -12 10 -18z m2820 -11 c0 -25 93 -203 155 -296 35 -52
112 -153 171 -223 213 -251 244 -293 289 -382 55 -111 75 -187 75 -285 0 -128
-40 -239 -118 -330 l-34 -40 -584 2 -585 3 1 364 0 365 24 30 c13 17 60 72
106 121 127 138 286 332 340 414 27 41 70 120 97 176 43 92 63 118 63 81z
m-790 -901 c0 -330 -4 -585 -9 -585 -5 0 -35 16 -67 35 -250 151 -632 188
-923 89 -42 -14 -118 -48 -169 -75 -51 -27 -95 -49 -97 -49 -6 0 -7 1165 -1
1171 2 2 288 3 635 1 l631 -2 0 -585z m-2895 -112 c-63 -249 -10 -465 156
-637 l78 -82 3 -97 c2 -53 1 -97 0 -97 -2 0 -23 16 -45 36 -59 50 -208 120
-295 139 -202 42 -418 0 -574 -111 l-48 -34 0 455 0 455 366 0 366 0 -7 -27z
m5245 -428 c0 -250 -2 -455 -5 -455 -3 0 -27 15 -53 34 -130 94 -263 131 -445
124 -155 -6 -250 -36 -375 -118 l-87 -58 -3 97 -2 96 79 82 c149 154 205 335
171 553 -6 36 -13 73 -16 83 -5 16 17 17 365 17 l371 0 0 -455z m-2727 -59
c182 -54 333 -144 471 -280 168 -165 254 -347 286 -606 6 -53 10 -451 10
-1076 l0 -992 -152 -7 c-84 -3 -546 -5 -1026 -3 l-872 3 0 1025 c0 894 2 1037
16 1120 53 315 250 587 534 738 88 47 144 67 260 93 126 28 351 21 473 -15z
m-1173 -213 c0 -4 -22 -38 -48 -77 -104 -151 -173 -316 -203 -479 -9 -50 -16
-66 -26 -63 -87 34 -136 41 -268 40 -125 0 -149 -3 -222 -27 -45 -15 -85 -32
-88 -37 -13 -21 -23 -7 -34 49 -6 33 -23 86 -36 120 -24 58 -25 71 -25 264 0
112 3 207 6 210 9 9 944 9 944 0z m2778 -193 l3 -195 -32 -68 c-17 -37 -36
-95 -42 -128 -9 -47 -15 -58 -27 -53 -144 63 -269 83 -400 66 -50 -7 -114 -21
-141 -32 -36 -13 -51 -15 -53 -7 -2 7 -17 70 -34 140 -35 148 -91 272 -176
390 -31 43 -56 80 -56 83 0 2 215 3 478 2 l477 -3 3 -195z m854 -14 c129 -45
218 -121 301 -258 77 -127 72 -40 75 -1220 l3 -1058 -475 0 -475 0 -4 802 c-3
897 1 839 -77 993 -22 45 -61 104 -85 132 -37 42 -45 58 -45 90 0 257 207 495
471 542 87 16 229 5 311 -23z m-5041 -8 c130 -48 223 -122 294 -232 51 -80 73
-152 76 -244 l2 -78 -48 -65 c-26 -35 -63 -96 -82 -136 -70 -146 -67 -94 -70
-974 l-4 -796 -352 -6 c-194 -4 -407 -7 -474 -7 l-123 0 0 1033 c0 884 2 1041
15 1096 48 201 212 370 415 426 85 23 266 14 351 -17z m3887 -524 c104 -21
184 -65 264 -145 76 -76 130 -177 147 -273 7 -39 11 -322 11 -823 l0 -763
-384 0 c-211 0 -391 -3 -400 -6 -15 -6 -16 85 -16 979 l0 985 58 21 c115 43
201 50 320 25z m-2902 -5 c32 -6 80 -20 107 -31 l47 -20 0 -974 0 -974 -405 0
-406 0 3 788 3 787 26 66 c38 99 76 158 143 224 125 122 292 169 482 134z"/>
</g>
</svg>
