<?xml version="1.0" standalone="no"?>
<!DOCTYPE svg PUBLIC "-//W3C//DTD SVG 20010904//EN"
 "http://www.w3.org/TR/2001/REC-SVG-20010904/DTD/svg10.dtd">
<svg version="1.0" xmlns="http://www.w3.org/2000/svg"
 width="1024.000000pt" height="1024.000000pt" viewBox="0 0 1024.000000 1024.000000"
 preserveAspectRatio="xMidYMid meet">

<g transform="translate(0.000000,1024.000000) scale(0.100000,-0.100000)"
fill="#000000" stroke="none">
<path d="M5086 8594 c-114 -171 -427 -562 -636 -794 -240 -266 -631 -654
-1115 -1105 -323 -302 -535 -529 -700 -750 -342 -458 -488 -806 -527 -1258
-30 -351 66 -724 261 -1013 237 -352 602 -601 985 -671 142 -27 410 -24 553 5
320 64 651 236 879 455 29 27 54 45 57 40 2 -4 -8 -71 -23 -148 -135 -681
-373 -1162 -796 -1612 -64 -68 -113 -127 -109 -133 8 -12 2425 -14 2425 -2 0
5 -52 64 -116 133 -64 68 -149 165 -189 214 -253 313 -447 724 -560 1188 -40
163 -75 348 -69 359 3 4 40 -23 83 -60 287 -248 638 -412 971 -453 184 -22
436 6 632 71 365 122 710 435 882 800 107 228 144 386 153 646 7 214 -4 321
-53 512 -74 290 -199 543 -429 862 -202 281 -378 467 -1085 1148 -658 633
-1024 1045 -1383 1555 -27 37 -49 67 -51 67 -2 0 -20 -25 -40 -56z"/>
</g>
</svg>
