<?xml version="1.0" standalone="no"?>
<!DOCTYPE svg PUBLIC "-//W3C//DTD SVG 20010904//EN"
 "http://www.w3.org/TR/2001/REC-SVG-20010904/DTD/svg10.dtd">
<svg version="1.0" xmlns="http://www.w3.org/2000/svg"
 width="1024.000000pt" height="1024.000000pt" viewBox="0 0 1024.000000 1024.000000"
 preserveAspectRatio="xMidYMid meet">

<g transform="translate(0.000000,1024.000000) scale(0.100000,-0.100000)"
fill="#000000" stroke="none">
<path d="M5096 9810 c-3 -8 -24 -89 -46 -180 -75 -302 -725 -2749 -733 -2756
-1 -2 -137 73 -302 165 -165 92 -516 288 -780 435 -496 277 -590 330 -1080
608 -286 163 -369 208 -380 208 -3 0 1 -10 9 -22 7 -13 69 -126 136 -253 67
-126 259 -484 425 -795 460 -856 784 -1465 781 -1467 -1 -2 -634 -161 -1407
-353 -772 -193 -1422 -356 -1444 -362 -40 -10 -38 -11 175 -75 118 -35 393
-120 610 -189 217 -69 472 -149 565 -179 94 -29 267 -84 385 -120 118 -37 298
-93 400 -124 102 -32 271 -84 377 -116 l191 -58 -112 -226 c-62 -124 -159
-323 -216 -441 -57 -118 -231 -476 -388 -795 -156 -319 -322 -659 -367 -755
-45 -96 -99 -208 -118 -248 -20 -40 -33 -72 -29 -70 22 9 408 228 1787 1011
698 396 777 439 784 431 10 -12 181 -615 402 -1419 44 -159 120 -427 169 -595
49 -168 107 -375 130 -460 23 -85 44 -162 47 -170 3 -9 14 13 25 50 10 36 60
198 110 360 229 746 288 941 435 1450 47 162 98 338 113 390 103 352 122 415
124 418 3 2 424 -237 791 -451 105 -60 285 -165 400 -232 116 -67 287 -166
380 -220 94 -54 332 -192 530 -307 198 -116 379 -221 403 -235 l43 -24 -34 68
c-19 37 -86 178 -150 313 -63 135 -225 472 -360 750 -450 928 -674 1397 -679
1419 -4 16 -33 7 777 241 547 158 907 261 1874 536 l204 58 -189 48 c-332 84
-1479 361 -2454 593 -179 43 -326 79 -328 80 -3 2 54 110 368 695 119 223 284
531 365 685 81 154 165 312 185 350 21 39 75 140 120 225 123 230 301 553 313
568 5 7 8 14 6 16 -4 4 -369 -198 -1174 -649 -1171 -656 -1366 -765 -1376
-765 -4 0 -10 16 -13 35 -4 20 -30 118 -57 218 -69 250 -339 1260 -444 1662
-47 182 -122 465 -165 630 -44 165 -86 325 -94 355 -8 32 -16 49 -20 40z m62
-730 c115 -451 530 -1996 611 -2276 l18 -60 -39 -90 c-22 -49 -160 -370 -308
-714 -284 -663 -318 -740 -327 -740 -2 0 -3 912 -1 2026 1 1114 6 2013 10
1998 4 -16 20 -81 36 -144z m-139 -1947 c0 -1058 -4 -1810 -9 -1798 -5 11 -31
76 -59 145 -27 69 -106 260 -176 425 -70 165 -179 421 -241 569 l-114 269 76
281 c42 154 93 342 114 416 58 201 275 1012 363 1353 22 86 42 157 44 157 1 0
3 -818 2 -1817z m-2634 662 c116 -65 442 -247 725 -405 283 -158 619 -346 745
-417 127 -71 280 -158 342 -192 61 -34 116 -67 121 -74 32 -39 677 -1575 666
-1587 -6 -5 -37 25 -1248 1230 -1413 1404 -1582 1573 -1571 1567 6 -2 105 -58
220 -122z m5642 23 c-37 -68 -61 -113 -302 -573 -87 -165 -186 -352 -220 -415
-80 -146 -431 -806 -516 -968 l-64 -122 -80 -31 c-551 -212 -1548 -608 -1559
-620 -6 -5 -15 -9 -20 -9 -6 0 619 630 1389 1400 770 770 1401 1400 1403 1400
2 0 -12 -28 -31 -62z m-1486 -1315 c-718 -720 -1307 -1307 -1309 -1306 -2 0 6
20 18 43 11 22 101 229 200 458 239 558 278 648 367 844 l75 168 167 93 c272
154 706 398 1206 677 259 145 495 278 525 296 30 18 56 34 56 34 1 0 -586
-588 -1305 -1307z m-2831 -280 c586 -585 1065 -1063 1064 -1063 0 0 -29 12
-65 26 -70 29 -593 227 -1094 416 l-320 120 -130 246 c-72 135 -179 338 -238
451 -60 114 -153 287 -206 386 -54 99 -171 315 -259 480 -88 165 -170 318
-182 340 -30 52 109 -84 1430 -1402z m-123 -719 c958 -363 1175 -444 1183
-444 5 0 11 -4 14 -8 3 -5 -831 -9 -1852 -10 -1021 -1 -1920 -5 -1997 -7
l-140 -5 1080 270 c594 148 1139 285 1210 304 72 19 133 34 137 35 3 1 168
-60 365 -135z m3723 47 c162 -38 502 -119 755 -180 935 -224 1251 -299 1275
-304 14 -2 -141 -5 -345 -6 -595 -2 -2205 -11 -2915 -15 -376 -3 -646 -1 -635
4 29 12 632 248 805 314 560 214 706 266 735 262 17 -3 163 -36 325 -75z
m2005 -598 c-22 -6 -973 -278 -1475 -423 -173 -50 -416 -121 -540 -157 l-225
-67 -185 63 c-102 35 -270 94 -375 132 -104 37 -318 113 -475 169 -469 166
-740 265 -740 271 0 3 687 6 1528 8 840 1 1529 5 1531 7 2 2 223 3 490 3 267
-1 477 -4 466 -6z m-4495 -10 c-8 -3 -154 -59 -325 -125 -664 -256 -929 -358
-1229 -470 l-189 -70 -96 30 c-53 17 -220 69 -371 117 -151 48 -414 131 -585
185 -609 193 -951 299 -999 312 -43 11 2 14 380 18 597 7 3432 10 3414 3z
m-320 -490 c-432 -436 -2420 -2422 -2420 -2417 0 1 94 193 209 426 115 233
299 610 409 838 375 777 429 887 443 892 8 3 194 74 414 158 567 215 971 371
1180 455 99 40 182 73 184 74 3 1 -186 -191 -419 -426z m1580 95 c322 -116
670 -240 775 -277 l189 -68 89 -189 c49 -104 168 -353 264 -554 97 -201 217
-453 268 -560 51 -107 118 -247 150 -310 32 -63 107 -216 167 -340 l108 -225
-1310 1315 c-721 723 -1346 1354 -1390 1401 l-79 86 92 -35 c51 -19 355 -129
677 -244z m-1216 1 c-72 -169 -194 -468 -497 -1212 -27 -68 -37 -82 -72 -102
-22 -12 -175 -98 -340 -190 -165 -92 -406 -229 -535 -303 -129 -74 -305 -174
-390 -222 -303 -170 -686 -388 -722 -409 -20 -12 565 579 1300 1313 735 734
1338 1333 1340 1332 1 -2 -36 -95 -84 -207z m2980 -2417 c-1 -1 -201 114 -445
256 -438 256 -851 494 -1289 744 -123 70 -230 134 -236 141 -6 6 -46 93 -89
192 -248 574 -508 1170 -541 1239 -13 28 -24 52 -24 54 0 3 591 -586 1313
-1309 721 -723 1312 -1315 1311 -1317z m-2407 1883 c94 -214 207 -477 253
-583 l83 -193 -42 -142 c-160 -542 -231 -782 -315 -1072 -52 -181 -127 -436
-166 -565 -39 -129 -83 -273 -96 -320 -14 -47 -30 -89 -36 -95 -7 -7 -9 -2 -4
16 3 14 6 849 6 1854 l1 1829 73 -170 c41 -93 150 -344 243 -559z m-417 -1125
l-5 -1775 -142 505 c-78 278 -181 645 -228 815 -47 171 -115 412 -151 537 -35
125 -64 232 -64 239 0 13 244 623 378 944 117 282 216 515 216 512 1 -1 -1
-801 -4 -1777z"/>
<path d="M2361 7504 c57 -107 71 -118 20 -17 -22 45 -45 85 -52 88 -6 4 8 -28
32 -71z"/>
<path d="M2466 7307 c3 -10 9 -15 12 -12 3 3 0 11 -7 18 -10 9 -11 8 -5 -6z"/>
<path d="M2511 7225 c18 -33 37 -64 42 -70 14 -15 -39 87 -58 110 -9 11 -1 -7
16 -40z"/>
<path d="M2615 7030 c14 -27 28 -50 30 -50 3 0 -6 23 -20 50 -14 28 -28 50
-30 50 -3 0 6 -22 20 -50z"/>
<path d="M4298 4933 c7 -3 16 -2 19 1 4 3 -2 6 -13 5 -11 0 -14 -3 -6 -6z"/>
<path d="M4608 4933 c7 -3 16 -2 19 1 4 3 -2 6 -13 5 -11 0 -14 -3 -6 -6z"/>
<path d="M4728 4933 c6 -2 18 -2 25 0 6 3 1 5 -13 5 -14 0 -19 -2 -12 -5z"/>
</g>
</svg>
